<svg xmlns="http://www.w3.org/2000/svg" xmlns:xlink="http://www.w3.org/1999/xlink" width="500" zoomAndPan="magnify" viewBox="0 0 375 374.999991" height="500" preserveAspectRatio="xMidYMid meet" version="1.0"><defs><clipPath id="db8528e955"><path d="M 31.324219 31.324219 L 343.675781 31.324219 L 343.675781 343.675781 L 31.324219 343.675781 Z M 31.324219 31.324219 " clip-rule="nonzero"/></clipPath><clipPath id="8a82c0c368"><path d="M 187.5 31.324219 C 101.246094 31.324219 31.324219 101.246094 31.324219 187.5 C 31.324219 273.753906 101.246094 343.675781 187.5 343.675781 C 273.753906 343.675781 343.675781 273.753906 343.675781 187.5 C 343.675781 101.246094 273.753906 31.324219 187.5 31.324219 Z M 187.5 31.324219 " clip-rule="nonzero"/></clipPath><clipPath id="b2a61ebca1"><path d="M 0.324219 0.324219 L 312.675781 0.324219 L 312.675781 312.675781 L 0.324219 312.675781 Z M 0.324219 0.324219 " clip-rule="nonzero"/></clipPath><clipPath id="f44666108f"><path d="M 156.5 0.324219 C 70.246094 0.324219 0.324219 70.246094 0.324219 156.5 C 0.324219 242.753906 70.246094 312.675781 156.5 312.675781 C 242.753906 312.675781 312.675781 242.753906 312.675781 156.5 C 312.675781 70.246094 242.753906 0.324219 156.5 0.324219 Z M 156.5 0.324219 " clip-rule="nonzero"/></clipPath><clipPath id="f144bd128d"><rect x="0" width="313" y="0" height="313"/></clipPath><clipPath id="8f86dd4334"><path d="M 79.324219 47.355469 L 295.675781 47.355469 L 295.675781 263.707031 L 79.324219 263.707031 Z M 79.324219 47.355469 " clip-rule="nonzero"/></clipPath><clipPath id="9c04a67f18"><path d="M 187.5 47.355469 C 127.757812 47.355469 79.324219 95.789062 79.324219 155.53125 C 79.324219 215.273438 127.757812 263.707031 187.5 263.707031 C 247.242188 263.707031 295.675781 215.273438 295.675781 155.53125 C 295.675781 95.789062 247.242188 47.355469 187.5 47.355469 Z M 187.5 47.355469 " clip-rule="nonzero"/></clipPath><clipPath id="4ff8a24395"><path d="M 0.324219 0.355469 L 216.675781 0.355469 L 216.675781 216.707031 L 0.324219 216.707031 Z M 0.324219 0.355469 " clip-rule="nonzero"/></clipPath><clipPath id="b07889f58a"><path d="M 108.5 0.355469 C 48.757812 0.355469 0.324219 48.789062 0.324219 108.53125 C 0.324219 168.273438 48.757812 216.707031 108.5 216.707031 C 168.242188 216.707031 216.675781 168.273438 216.675781 108.53125 C 216.675781 48.789062 168.242188 0.355469 108.5 0.355469 Z M 108.5 0.355469 " clip-rule="nonzero"/></clipPath><clipPath id="3adcbbd383"><rect x="0" width="217" y="0" height="217"/></clipPath><clipPath id="2f3d70712a"><path d="M 166.730469 155.53125 L 208.269531 155.53125 L 208.269531 197.066406 L 166.730469 197.066406 Z M 166.730469 155.53125 " clip-rule="nonzero"/></clipPath><clipPath id="8f334e2d64"><path d="M 187.5 155.53125 C 176.03125 155.53125 166.730469 164.828125 166.730469 176.300781 C 166.730469 187.769531 176.03125 197.066406 187.5 197.066406 C 198.96875 197.066406 208.269531 187.769531 208.269531 176.300781 C 208.269531 164.828125 198.96875 155.53125 187.5 155.53125 Z M 187.5 155.53125 " clip-rule="nonzero"/></clipPath><clipPath id="177ab28e2b"><path d="M 0.730469 0.53125 L 42.269531 0.53125 L 42.269531 42.066406 L 0.730469 42.066406 Z M 0.730469 0.53125 " clip-rule="nonzero"/></clipPath><clipPath id="4bde9a812e"><path d="M 21.5 0.53125 C 10.03125 0.53125 0.730469 9.828125 0.730469 21.300781 C 0.730469 32.769531 10.03125 42.066406 21.5 42.066406 C 32.96875 42.066406 42.269531 32.769531 42.269531 21.300781 C 42.269531 9.828125 32.96875 0.53125 21.5 0.53125 Z M 21.5 0.53125 " clip-rule="nonzero"/></clipPath><clipPath id="03ff09b88b"><rect x="0" width="43" y="0" height="43"/></clipPath></defs><g clip-path="url(#db8528e955)"><g clip-path="url(#8a82c0c368)"><g transform="matrix(1, 0, 0, 1, 31, 31)"><g clip-path="url(#f144bd128d)"><g clip-path="url(#b2a61ebca1)"><g clip-path="url(#f44666108f)"><path fill="#7ca163" d="M 0.324219 0.324219 L 312.675781 0.324219 L 312.675781 312.675781 L 0.324219 312.675781 Z M 0.324219 0.324219 " fill-opacity="1" fill-rule="nonzero"/></g></g></g></g></g></g><g clip-path="url(#8f86dd4334)"><g clip-path="url(#9c04a67f18)"><g transform="matrix(1, 0, 0, 1, 79, 47)"><g clip-path="url(#3adcbbd383)"><g clip-path="url(#4ff8a24395)"><g clip-path="url(#b07889f58a)"><path fill="#ffffff" d="M 0.324219 0.355469 L 216.675781 0.355469 L 216.675781 216.707031 L 0.324219 216.707031 Z M 0.324219 0.355469 " fill-opacity="1" fill-rule="nonzero"/></g></g></g></g></g></g><g clip-path="url(#2f3d70712a)"><g clip-path="url(#8f334e2d64)"><g transform="matrix(1, 0, 0, 1, 166, 155)"><g clip-path="url(#03ff09b88b)"><g clip-path="url(#177ab28e2b)"><g clip-path="url(#4bde9a812e)"><path fill="#f7d1d1" d="M 0.730469 0.53125 L 42.269531 0.53125 L 42.269531 42.066406 L 0.730469 42.066406 Z M 0.730469 0.53125 " fill-opacity="1" fill-rule="nonzero"/></g></g></g></g></g></g></svg>